<svg width="1680" height="768" viewBox="0 0 1680 768" fill="none" xmlns="http://www.w3.org/2000/svg">
<g filter="url(#filter0_dif_256_2680)">
<path fill-rule="evenodd" clip-rule="evenodd" d="M1078.36 1285.14C1206.53 1312.61 1311.18 1293.25 1374.97 1229.46C1429.83 1174.6 1451.83 1089.51 1439.43 985.233C1433.45 988.633 1427.38 991.974 1421.23 995.255C1314.26 1052.34 1179.18 1093.48 1028.8 1112.42C981.132 1150.85 932.557 1185.09 883.939 1214.82C931.031 1238.26 977.38 1256.9 1022.04 1270.48C1029.25 1272.68 1036.4 1274.73 1043.48 1276.65C1055.29 1279.86 1066.92 1282.68 1078.36 1285.14ZM1108.38 1043.46C1217.73 1022.33 1315.32 988.719 1395.04 946.174C1406.9 939.846 1418.32 933.349 1429.29 926.695C1425.61 910.333 1421.18 893.598 1415.99 876.524C1402.41 831.863 1383.77 785.518 1360.33 738.429C1304.98 828.933 1234.04 919.283 1149.41 1003.91C1135.88 1017.45 1122.19 1030.63 1108.38 1043.46ZM1491 952.989C1511.45 1078.85 1490.48 1192.64 1414.32 1268.8C1341.97 1341.15 1235.66 1363.69 1117.31 1348.24C1090.74 1344.77 1063.56 1339.39 1036.03 1332.23C1026.01 1329.62 1015.94 1326.78 1005.84 1323.71C947.703 1306.03 887.403 1280.52 826.64 1247.78C765.868 1280.53 705.558 1306.04 647.409 1323.72C485.882 1372.84 333.444 1363.31 238.947 1268.81C159.31 1189.18 140.019 1068.39 165.322 935.683C69.2733 862.613 9.00921 770.806 9.00913 667.604C9.00921 565.879 67.5602 475.227 161.219 402.675C142.553 279.43 164.102 168.261 238.934 93.4281C311.912 20.4507 419.446 -1.85105 539.036 14.3999C564.626 17.8767 590.768 23.1188 617.242 30.0075C627.254 32.6128 637.314 35.4537 647.41 38.5236C705.56 56.2069 765.871 81.7167 826.644 114.47C887.41 81.722 947.714 56.2159 1005.86 38.5346C1167.39 -10.5852 1319.82 -1.05465 1414.32 93.4416C1485.48 164.602 1508.46 268.622 1494.49 384.636C1602.35 459.952 1671.24 557.265 1671.24 667.604C1671.24 779.127 1600.86 877.343 1491 952.989ZM1483.98 445.814C1569.37 511.558 1615.6 588.612 1615.6 667.604C1615.6 748.263 1567.4 826.901 1478.53 893.541C1475.71 882.528 1472.61 871.456 1469.23 860.341C1451.54 802.195 1426.04 741.89 1393.29 681.122C1426.04 620.354 1451.54 560.049 1469.23 501.903C1474.96 483.057 1479.89 464.335 1483.98 445.814ZM1441.83 351.343C1447.95 258.758 1425.27 183.072 1374.98 132.779C1302.07 59.8722 1175.8 45.0024 1022.04 91.7598C977.38 105.342 931.031 123.98 883.939 147.425C918.819 168.756 953.677 192.404 988.193 218.258C1154.85 234.515 1304.72 277.775 1421.23 339.953C1428.21 343.673 1435.07 347.471 1441.83 351.343ZM1262.09 484.14C1310.4 411.091 1354.98 367.653 1395.04 389.034C1408.69 396.314 1421.75 403.819 1434.21 411.528C1429.83 435.421 1423.76 460.191 1416 485.718C1402.42 530.382 1383.78 576.733 1360.33 623.826C1331.68 576.965 1298.84 530.145 1262.09 484.14ZM1230.81 534.35C1268.54 582.979 1301.57 632.248 1329.62 681.133C1274.78 776.694 1200.92 873.723 1110.08 964.57C1076.16 998.486 1041.38 1030.03 1006.14 1059.11C952.707 1065.22 897.168 1068.45 840.122 1068.45C771.668 1068.45 705.382 1063.8 642.301 1055.1C608.711 1027.14 575.559 996.925 543.192 964.559C452.345 873.712 378.487 776.683 323.644 681.122C355.428 625.74 393.599 569.865 437.762 514.986C464.394 558.389 492.086 609.058 520.715 661.442C617.963 839.382 726.03 1037.12 840.122 1037.12C954.214 1037.12 1062.28 839.382 1159.53 661.442C1184 616.67 1207.78 573.151 1230.81 534.35ZM881.582 211.676C863.249 199.808 844.917 188.622 826.639 178.132C807.834 188.924 788.972 200.452 770.111 212.702C793.203 211.657 816.554 211.125 840.122 211.125C854.021 211.125 867.843 211.31 881.582 211.676ZM660.546 221.676C696.546 194.484 732.933 169.693 769.345 147.426C722.242 123.974 675.883 105.331 631.21 91.7463C622.768 89.1791 614.409 86.7968 606.137 84.6006C592.728 81.0408 579.548 77.9675 566.615 75.3783C442.22 50.4747 340.699 70.3555 278.286 132.769C225.225 185.83 202.905 267.157 212.71 366.776C227.546 357.443 243.001 348.496 259.01 339.953C368.139 281.718 506.515 240.079 660.546 221.676ZM173.622 464.304C102.735 525.801 64.6411 595.904 64.6411 667.604C64.6411 741.256 104.837 813.223 179.484 875.908C180.942 870.733 182.461 865.547 184.041 860.352C201.722 802.207 227.229 741.901 259.978 681.133C227.223 620.357 201.711 560.043 184.027 501.89C180.198 489.298 176.725 476.762 173.622 464.304ZM215.804 970.368C199.42 1081.43 220.833 1172.02 278.285 1229.48C351.192 1302.38 477.465 1317.25 631.224 1270.5C675.892 1256.91 722.246 1238.27 769.344 1214.82C718.844 1183.94 668.392 1148.2 618.956 1107.95C481.609 1087.42 358.223 1048.2 259.01 995.255C244.111 987.305 229.691 979.004 215.804 970.368ZM537.185 1036.26C441.846 1015.04 356.4 984.168 285.201 946.174C264.626 935.195 245.378 923.707 227.505 911.774C230.389 900.202 233.643 888.452 237.266 876.538C250.848 831.872 269.487 785.522 292.933 738.427C348.28 828.927 419.22 919.273 503.84 1003.89C514.862 1014.92 525.981 1025.7 537.185 1036.26ZM726.478 1119.9C759.829 1143.56 793.325 1164.99 826.643 1184.12C859.063 1165.51 891.652 1144.71 924.111 1121.81C896.477 1123.31 868.457 1124.08 840.122 1124.08C801.599 1124.08 763.659 1122.66 726.478 1119.9ZM222.122 427.069C241.496 413.831 262.544 401.124 285.201 389.034C321.843 369.48 362.259 404.14 405.854 466.082C363.122 517.864 325.356 570.819 292.939 623.827C269.49 576.73 250.85 530.375 237.266 485.707C231.175 465.675 226.129 446.11 222.122 427.069Z" fill="white"/>
</g>
<defs>
<filter id="filter0_dif_256_2680" x="0.501928" y="0.863501" width="1679.24" height="1360.52" filterUnits="userSpaceOnUse" color-interpolation-filters="sRGB">
<feFlood flood-opacity="0" result="BackgroundImageFix"/>
<feColorMatrix in="SourceAlpha" type="matrix" values="0 0 0 0 0 0 0 0 0 0 0 0 0 0 0 0 0 0 127 0" result="hardAlpha"/>
<feOffset dy="1.24202"/>
<feGaussianBlur stdDeviation="0.621012"/>
<feComposite in2="hardAlpha" operator="out"/>
<feColorMatrix type="matrix" values="0 0 0 0 0 0 0 0 0 0 0 0 0 0 0 0 0 0 0.12 0"/>
<feBlend mode="normal" in2="BackgroundImageFix" result="effect1_dropShadow_256_2680"/>
<feBlend mode="normal" in="SourceGraphic" in2="effect1_dropShadow_256_2680" result="shape"/>
<feColorMatrix in="SourceAlpha" type="matrix" values="0 0 0 0 0 0 0 0 0 0 0 0 0 0 0 0 0 0 127 0" result="hardAlpha"/>
<feOffset dy="1.24202"/>
<feGaussianBlur stdDeviation="3.72607"/>
<feComposite in2="hardAlpha" operator="arithmetic" k2="-1" k3="1"/>
<feColorMatrix type="matrix" values="0 0 0 0 0 0 0 0 0 0 0 0 0 0 0 0 0 0 0.12 0"/>
<feBlend mode="normal" in2="shape" result="effect2_innerShadow_256_2680"/>
<feGaussianBlur stdDeviation="4.25355" result="effect3_foregroundBlur_256_2680"/>
</filter>
</defs>
</svg>
