<svg width="74" height="41" viewBox="0 0 74 41" fill="none" xmlns="http://www.w3.org/2000/svg">
<path d="M4.98622 0.134945C2.72025 0.102463 4.8429e-07 -0.000389099 4.8429e-07 -0.000389099C4.8429e-07 -0.000389099 0.160495 6.09232 0.272025 8.11961C0.386276 10.1523 0.748069 14.2069 0.816075 16.2396C0.884082 18.2696 0.884082 22.3296 0.816075 24.3596C0.748069 26.3923 0.386276 30.4496 0.272025 32.4796C0.160495 34.5069 0 40.5996 0 40.5996C0 40.5996 2.72025 40.4995 4.98622 40.4643C7.25491 40.4318 11.7868 40.3127 14.0555 40.3289C16.3242 40.3455 23.1221 40.5996 23.1221 40.5996L22.0422 39.5251C22.0422 39.5251 16.3106 34.7126 14.5153 32.9831C12.5322 31.0749 8.85986 26.9688 6.98832 24.9524C5.91382 23.7939 2.72025 20.2996 2.72025 20.2996C2.72025 20.2996 5.9111 16.7999 6.98832 15.6471C8.8517 13.655 12.5512 9.64644 14.5153 7.75177C16.3242 6.00597 22.0422 1.07443 22.0422 1.07443L23.1221 0.0023158C23.1221 0.0023158 23.2228 7.44863 23.3942 10.8263C23.4785 12.5207 23.8022 18.6025 23.8022 20.2996C23.8022 21.9967 23.4785 28.0786 23.3942 29.7729C23.2228 33.1536 23.1221 40.5996 23.1221 40.5996C23.1221 40.5996 23.6118 40.0556 24.1857 39.4222C24.7597 38.7888 25.418 38.0632 25.7553 37.7089C26.8244 36.5748 29.0006 34.3418 30.1077 33.2429C31.1795 32.1765 33.3475 30.0707 34.4601 29.0476C35.0123 28.5387 36.7234 27.0663 36.7234 27.0663C36.7234 27.0663 35.0123 25.4913 34.4601 24.9499C33.2986 23.8131 29.9228 20.2996 29.9228 20.2996C29.9228 20.2996 33.2986 16.7866 34.4601 15.6496C35.0123 15.1082 36.7234 13.5329 36.7234 13.5329C36.7234 13.5329 35.0259 11.9441 34.4601 11.4166C33.372 10.4016 31.1632 8.40381 30.1077 7.3566C28.9843 6.24146 26.8462 3.90262 25.7553 2.75527C25.097 2.0648 23.1221 -0.000388823 23.1221 -0.000388823C23.1221 -0.000388823 16.3215 0.254036 14.0555 0.270279C11.7868 0.286789 7.25491 0.170132 4.98622 0.134945Z" fill="#5E0A60"/>
<path d="M68.0301 40.4643C70.2961 40.4968 73.0163 40.5996 73.0163 40.5996C73.0163 40.5996 72.8559 34.5069 72.7443 32.4796C72.6301 30.4469 72.2683 26.3923 72.2003 24.3596C72.1323 22.3296 72.1323 18.2696 72.2003 16.2396C72.2683 14.2069 72.6301 10.1496 72.7443 8.11961C72.8559 6.09232 73.0164 -0.000388661 73.0164 -0.000388661C73.0164 -0.000388661 70.2961 0.0997586 68.0301 0.134945C65.7614 0.167424 61.2295 0.286518 58.9608 0.270279C56.6921 0.253765 49.8942 -0.000388937 49.8942 -0.000388937L50.9742 1.07416C50.9742 1.07416 56.7057 5.88661 58.5011 7.61617C60.4842 9.52437 64.1565 13.6304 66.028 15.6468C67.1025 16.8053 70.2961 20.2996 70.2961 20.2996C70.2961 20.2996 67.1052 23.7993 66.028 24.9521C64.1647 26.9442 60.4651 30.9528 58.5011 32.8474C56.6921 34.5932 50.9742 39.5248 50.9742 39.5248L49.8942 40.5969C49.8942 40.5969 49.7936 33.1506 49.6222 29.7729C49.5379 28.0786 49.2142 21.9967 49.2142 20.2996C49.2142 18.6025 49.5379 12.5207 49.6222 10.8263C49.7936 7.44565 49.8942 -0.000388937 49.8942 -0.000388937C49.8942 -0.000388937 49.4046 0.543652 48.8306 1.17701C48.2566 1.81037 47.5983 2.53603 47.261 2.89033C46.192 4.02442 44.0158 6.25742 42.9086 7.35633C41.8368 8.42276 39.6688 10.5285 38.5562 11.5517C38.004 12.0605 36.293 13.5329 36.293 13.5329C36.293 13.5329 38.004 15.108 38.5562 15.6493C39.7178 16.7861 43.0936 20.2996 43.0936 20.2996C43.0936 20.2996 39.7178 23.8126 38.5562 24.9497C38.004 25.491 36.293 27.0663 36.293 27.0663C36.293 27.0663 37.9904 28.6551 38.5562 29.1826C39.6443 30.1976 41.8532 32.1954 42.9086 33.2426C44.0321 34.3578 46.1702 36.6966 47.261 37.844C47.9193 38.5344 49.8942 40.5996 49.8942 40.5996C49.8942 40.5996 56.6948 40.3452 58.9608 40.3289C61.2295 40.3124 65.7614 40.4291 68.0301 40.4643Z" fill="#5E0A60"/>
</svg>
