<svg width="177" height="41" viewBox="0 0 177 41" fill="none" xmlns="http://www.w3.org/2000/svg">
<path d="M164.511 16.9549C164.511 15.4361 164.476 13.9402 164.407 12.4674C164.361 10.9945 164.303 9.52167 164.234 8.04883C165.27 8.09486 166.295 8.14088 167.308 8.18691C168.343 8.20992 169.379 8.22143 170.415 8.22143C171.451 8.22143 172.475 8.20992 173.488 8.18691C174.501 8.14088 175.526 8.09486 176.562 8.04883C176.492 8.39403 176.458 8.73923 176.458 9.08442C176.458 9.42962 176.492 9.77482 176.562 10.12C175.825 10.074 175.146 10.028 174.524 9.98194C173.926 9.93591 173.281 9.88988 172.591 9.84386C171.923 9.79783 171.186 9.76331 170.381 9.7403C169.575 9.69427 168.608 9.67126 167.48 9.67126C167.457 10.4077 167.423 11.1096 167.377 11.777C167.354 12.4443 167.342 13.2038 167.342 14.0553C167.342 14.9528 167.342 15.8273 167.342 16.6788C167.365 17.5303 167.377 18.1746 167.377 18.6119C168.389 18.6119 169.299 18.6004 170.104 18.5774C170.91 18.5543 171.647 18.5313 172.314 18.5083C172.982 18.4623 173.592 18.4278 174.144 18.4048C174.72 18.3587 175.261 18.3127 175.767 18.2667C175.698 18.6119 175.664 18.9686 175.664 19.3368C175.664 19.682 175.698 20.0272 175.767 20.3724C175.169 20.3034 174.467 20.2458 173.661 20.1998C172.878 20.1538 172.084 20.1308 171.278 20.1308C170.496 20.1077 169.748 20.0962 169.034 20.0962C168.343 20.0732 167.791 20.0617 167.377 20.0617C167.377 20.2688 167.365 20.499 167.342 20.7521C167.342 20.9822 167.342 21.2814 167.342 21.6496V22.9959V25.0671C167.342 26.3788 167.342 27.4604 167.342 28.3119C167.365 29.1634 167.388 29.8078 167.411 30.245C168.171 30.245 168.976 30.245 169.828 30.245C170.703 30.245 171.555 30.2335 172.383 30.2105C173.235 30.1645 174.029 30.1185 174.766 30.0724C175.526 30.0034 176.182 29.9114 176.734 29.7963C176.688 29.9574 176.654 30.1415 176.631 30.3486C176.631 30.5327 176.631 30.7053 176.631 30.8664C176.631 31.2346 176.665 31.5338 176.734 31.7639C175.698 31.7179 174.662 31.6949 173.626 31.6949C172.614 31.6949 171.578 31.6949 170.519 31.6949C169.46 31.6949 168.412 31.6949 167.377 31.6949C166.341 31.6949 165.293 31.7179 164.234 31.7639C164.303 30.2911 164.361 28.8297 164.407 27.3799C164.476 25.9071 164.511 24.4112 164.511 22.8923V16.9549Z" fill="#5E0A60"/>
<path d="M137.027 7.60156C138.616 10.8694 140.215 14.0453 141.827 17.129C143.461 20.2128 145.165 23.3771 146.937 26.622C147.167 26.1847 147.501 25.5634 147.939 24.7579C148.376 23.9294 148.882 22.9859 149.458 21.9273C150.033 20.8687 150.643 19.7295 151.288 18.5098C151.956 17.2671 152.623 16.0129 153.291 14.7472C153.981 13.4814 154.66 12.2387 155.328 11.019C155.996 9.79932 156.617 8.66017 157.193 7.60156H157.641C157.895 9.81083 158.125 11.9511 158.332 14.0222C158.562 16.0704 158.792 18.0956 159.023 20.0977C159.253 22.0769 159.483 24.0445 159.713 26.0006C159.943 27.9337 160.197 29.8553 160.473 31.7654C160.197 31.7194 159.92 31.6964 159.644 31.6964C159.391 31.6964 159.126 31.6964 158.85 31.6964C158.574 31.6964 158.298 31.6964 158.021 31.6964C157.768 31.6964 157.503 31.7194 157.227 31.7654C156.974 28.7046 156.721 25.736 156.467 22.8593C156.214 19.9827 155.903 17.0485 155.535 14.0568H155.466C153.878 16.9564 152.312 19.8446 150.77 22.7212C149.251 25.5749 147.801 28.5666 146.419 31.6964H146.109C144.727 28.7967 143.277 25.897 141.758 22.9974C140.262 20.0747 138.754 17.0945 137.234 14.0568H137.165C137.004 15.4836 136.82 17.037 136.613 18.7169C136.429 20.3739 136.256 22.0193 136.095 23.6533C135.934 25.2642 135.796 26.7946 135.681 28.2444C135.565 29.6712 135.508 30.8449 135.508 31.7654C135.14 31.7194 134.737 31.6964 134.299 31.6964C133.862 31.6964 133.459 31.7194 133.091 31.7654C133.39 29.9013 133.701 27.9337 134.023 25.8625C134.345 23.7913 134.656 21.7086 134.955 19.6144C135.255 17.5202 135.531 15.4606 135.784 13.4354C136.037 11.3872 136.256 9.44262 136.44 7.60156H137.027Z" fill="#5E0A60"/>
<path d="M105.631 19.9596C105.631 18.0035 105.942 16.266 106.563 14.7472C107.208 13.2053 108.094 11.905 109.222 10.8464C110.373 9.78781 111.743 8.98235 113.331 8.43004C114.919 7.87772 116.657 7.60156 118.545 7.60156C120.456 7.60156 122.205 7.87772 123.794 8.43004C125.382 8.98235 126.74 9.78781 127.868 10.8464C129.019 11.905 129.905 13.2053 130.527 14.7472C131.171 16.266 131.494 18.0035 131.494 19.9596C131.494 21.9158 131.171 23.6648 130.527 25.2067C129.905 26.7255 129.019 28.0143 127.868 29.0729C126.74 30.1315 125.382 30.9254 123.794 31.4547C122.205 31.961 120.456 32.2142 118.545 32.2142C116.657 32.2142 114.919 31.961 113.331 31.4547C111.743 30.9254 110.373 30.1315 109.222 29.0729C108.094 28.0143 107.208 26.7255 106.563 25.2067C105.942 23.6648 105.631 21.9158 105.631 19.9596ZM128.11 19.9596C128.11 18.0495 127.868 16.4041 127.385 15.0233C126.901 13.6195 126.222 12.4689 125.347 11.5713C124.496 10.6508 123.483 9.97192 122.309 9.53467C121.158 9.09742 119.903 8.87879 118.545 8.87879C117.21 8.87879 115.955 9.09742 114.781 9.53467C113.63 9.97192 112.617 10.6508 111.743 11.5713C110.891 12.4689 110.223 13.6195 109.74 15.0233C109.256 16.4041 109.015 18.0495 109.015 19.9596C109.015 21.8697 109.256 23.5267 109.74 24.9305C110.223 26.3113 110.891 27.4619 111.743 28.3825C112.617 29.28 113.63 29.9474 114.781 30.3846C115.955 30.8219 117.21 31.0405 118.545 31.0405C119.903 31.0405 121.158 30.8219 122.309 30.3846C123.483 29.9474 124.496 29.28 125.347 28.3825C126.222 27.4619 126.901 26.3113 127.385 24.9305C127.868 23.5267 128.11 21.8697 128.11 19.9596Z" fill="#5E0A60"/>
<path d="M89.1161 16.9895C89.1161 15.4706 89.0816 13.9862 89.0125 12.5364C88.9665 11.0636 88.9089 9.5677 88.8398 8.04883C89.5074 8.09486 90.1635 8.14088 90.808 8.18691C91.4526 8.20992 92.1087 8.22143 92.7762 8.22143C93.4438 8.22143 94.0999 8.19842 94.7444 8.15239C95.389 8.08335 96.0451 8.04883 96.7126 8.04883C97.6795 8.04883 98.6003 8.14088 99.475 8.32499C100.35 8.50909 101.109 8.81977 101.754 9.25702C102.422 9.67126 102.939 10.2236 103.308 10.914C103.699 11.6044 103.895 12.4674 103.895 13.503C103.895 14.6076 103.642 15.5626 103.135 16.3681C102.652 17.1505 102.053 17.8064 101.34 18.3357C100.626 18.842 99.8548 19.2447 99.0261 19.5439C98.2204 19.8201 97.4838 20.0042 96.8162 20.0962C97.0925 20.4414 97.4723 20.9247 97.9557 21.5461C98.4391 22.1674 98.9801 22.8578 99.5786 23.6172C100.177 24.3537 100.799 25.1361 101.443 25.9646C102.088 26.7701 102.709 27.5525 103.308 28.3119C103.906 29.0484 104.47 29.7272 105 30.3486C105.529 30.97 105.955 31.4417 106.277 31.7639C105.932 31.7179 105.587 31.6949 105.241 31.6949C104.896 31.6949 104.551 31.6949 104.206 31.6949C103.883 31.6949 103.55 31.6949 103.204 31.6949C102.859 31.6949 102.525 31.7179 102.203 31.7639C101.858 31.2806 101.328 30.5557 100.614 29.5892C99.9239 28.6226 99.1527 27.587 98.301 26.4824C97.4493 25.3778 96.5745 24.2846 95.6767 23.203C94.802 22.0984 93.9963 21.1663 93.2597 20.4069H91.9475V22.9269C91.9475 24.4457 91.9705 25.9416 92.0166 27.4144C92.0856 28.8873 92.1547 30.3371 92.2238 31.7639C91.6943 31.7179 91.1303 31.6949 90.5318 31.6949C89.9333 31.6949 89.3693 31.7179 88.8398 31.7639C88.9089 30.3371 88.9665 28.8873 89.0125 27.4144C89.0816 25.9416 89.1161 24.4457 89.1161 22.9269V16.9895ZM91.9475 18.9571C92.2698 19.0261 92.6151 19.0721 92.9834 19.0952C93.3748 19.1182 93.8006 19.1297 94.261 19.1297C94.9746 19.1297 95.7113 19.0491 96.4709 18.888C97.2536 18.7269 97.9672 18.4508 98.6118 18.0596C99.2563 17.6453 99.7858 17.1045 100.2 16.4371C100.638 15.7467 100.856 14.8837 100.856 13.8482C100.856 12.9506 100.684 12.2142 100.338 11.6389C100.016 11.0405 99.5901 10.5688 99.0607 10.2236C98.5312 9.87838 97.9557 9.64825 97.3342 9.53318C96.7126 9.3951 96.1026 9.32606 95.5041 9.32606C94.6984 9.32606 94.0308 9.34907 93.5014 9.3951C92.9719 9.41811 92.523 9.45263 92.1547 9.49866C92.1087 10.7644 92.0626 12.0186 92.0166 13.2613C91.9705 14.504 91.9475 15.7467 91.9475 16.9895V18.9571Z" fill="#5E0A60"/>
<path d="M4.98622 0.134945C2.72025 0.102463 4.8429e-07 -0.000389099 4.8429e-07 -0.000389099C4.8429e-07 -0.000389099 0.160495 6.09232 0.272025 8.11961C0.386276 10.1523 0.748069 14.2069 0.816075 16.2396C0.884082 18.2696 0.884082 22.3296 0.816075 24.3596C0.748069 26.3923 0.386276 30.4496 0.272025 32.4796C0.160495 34.5069 0 40.5996 0 40.5996C0 40.5996 2.72025 40.4995 4.98622 40.4643C7.25491 40.4318 11.7868 40.3127 14.0555 40.3289C16.3242 40.3455 23.1221 40.5996 23.1221 40.5996L22.0422 39.5251C22.0422 39.5251 16.3106 34.7126 14.5153 32.9831C12.5322 31.0749 8.85986 26.9688 6.98832 24.9524C5.91382 23.7939 2.72025 20.2996 2.72025 20.2996C2.72025 20.2996 5.9111 16.7999 6.98832 15.6471C8.8517 13.655 12.5512 9.64644 14.5153 7.75177C16.3242 6.00597 22.0422 1.07443 22.0422 1.07443L23.1221 0.0023158C23.1221 0.0023158 23.2228 7.44863 23.3942 10.8263C23.4785 12.5207 23.8022 18.6025 23.8022 20.2996C23.8022 21.9967 23.4785 28.0786 23.3942 29.7729C23.2228 33.1536 23.1221 40.5996 23.1221 40.5996C23.1221 40.5996 23.6118 40.0556 24.1857 39.4222C24.7597 38.7888 25.418 38.0632 25.7553 37.7089C26.8244 36.5748 29.0006 34.3418 30.1077 33.2429C31.1795 32.1765 33.3475 30.0707 34.4601 29.0476C35.0123 28.5387 36.7234 27.0663 36.7234 27.0663C36.7234 27.0663 35.0123 25.4913 34.4601 24.9499C33.2986 23.8131 29.9228 20.2996 29.9228 20.2996C29.9228 20.2996 33.2986 16.7866 34.4601 15.6496C35.0123 15.1082 36.7234 13.5329 36.7234 13.5329C36.7234 13.5329 35.0259 11.9441 34.4601 11.4166C33.372 10.4016 31.1632 8.40381 30.1077 7.3566C28.9843 6.24146 26.8462 3.90262 25.7553 2.75527C25.097 2.0648 23.1221 -0.000388823 23.1221 -0.000388823C23.1221 -0.000388823 16.3215 0.254036 14.0555 0.270279C11.7868 0.286789 7.25491 0.170132 4.98622 0.134945Z" fill="#5E0A60"/>
<path d="M68.0301 40.4643C70.2961 40.4968 73.0163 40.5996 73.0163 40.5996C73.0163 40.5996 72.8559 34.5069 72.7443 32.4796C72.6301 30.4469 72.2683 26.3923 72.2003 24.3596C72.1323 22.3296 72.1323 18.2696 72.2003 16.2396C72.2683 14.2069 72.6301 10.1496 72.7443 8.11961C72.8559 6.09232 73.0164 -0.000388661 73.0164 -0.000388661C73.0164 -0.000388661 70.2961 0.0997586 68.0301 0.134945C65.7614 0.167424 61.2295 0.286518 58.9608 0.270279C56.6921 0.253765 49.8942 -0.000388937 49.8942 -0.000388937L50.9742 1.07416C50.9742 1.07416 56.7057 5.88661 58.5011 7.61617C60.4842 9.52437 64.1565 13.6304 66.028 15.6468C67.1025 16.8053 70.2961 20.2996 70.2961 20.2996C70.2961 20.2996 67.1052 23.7993 66.028 24.9521C64.1647 26.9442 60.4651 30.9528 58.5011 32.8474C56.6921 34.5932 50.9742 39.5248 50.9742 39.5248L49.8942 40.5969C49.8942 40.5969 49.7936 33.1506 49.6222 29.7729C49.5379 28.0786 49.2142 21.9967 49.2142 20.2996C49.2142 18.6025 49.5379 12.5207 49.6222 10.8263C49.7936 7.44565 49.8942 -0.000388937 49.8942 -0.000388937C49.8942 -0.000388937 49.4046 0.543652 48.8306 1.17701C48.2566 1.81037 47.5983 2.53603 47.261 2.89033C46.192 4.02442 44.0158 6.25742 42.9086 7.35633C41.8368 8.42276 39.6688 10.5285 38.5562 11.5517C38.004 12.0605 36.293 13.5329 36.293 13.5329C36.293 13.5329 38.004 15.108 38.5562 15.6493C39.7178 16.7861 43.0936 20.2996 43.0936 20.2996C43.0936 20.2996 39.7178 23.8126 38.5562 24.9497C38.004 25.491 36.293 27.0663 36.293 27.0663C36.293 27.0663 37.9904 28.6551 38.5562 29.1826C39.6443 30.1976 41.8532 32.1954 42.9086 33.2426C44.0321 34.3578 46.1702 36.6966 47.261 37.844C47.9193 38.5344 49.8942 40.5996 49.8942 40.5996C49.8942 40.5996 56.6948 40.3452 58.9608 40.3289C61.2295 40.3124 65.7614 40.4291 68.0301 40.4643Z" fill="#5E0A60"/>
</svg>
